<svg width="63" height="61" viewBox="0 0 63 61" fill="none" xmlns="http://www.w3.org/2000/svg">
<path fill-rule="evenodd" clip-rule="evenodd" d="M11.0676 0C4.95237 0 0 4.95401 0 11.0578V38.2769C0 44.3806 4.95237 49.3346 11.0676 49.3346H15.5676V57.7191C15.5676 58.9803 16.2911 60.1298 17.4289 60.6762C18.5666 61.2225 19.917 61.0689 20.9027 60.281L34.5978 49.3346H51.9324C58.0476 49.3346 63 44.3806 63 38.2769V11.0578C63 4.95401 58.0476 0 51.9324 0H11.0676ZM6.56757 11.0578C6.56757 8.57583 8.58168 6.56175 11.0676 6.56175H51.9324C54.4183 6.56175 56.4324 8.57583 56.4324 11.0578V38.2769C56.4324 40.7588 54.4183 42.7729 51.9324 42.7729H33.4459C32.7003 42.7729 31.9768 43.0264 31.3946 43.4918L22.1351 50.8928V46.0538C22.1351 44.2418 20.6649 42.7729 18.8514 42.7729H11.0676C8.58168 42.7729 6.56757 40.7588 6.56757 38.2769V11.0578ZM27.6075 24.6673C27.6075 26.8099 29.3511 28.5558 31.4994 28.5558C33.6477 28.5558 35.3913 26.8099 35.3913 24.6673C35.3913 22.5248 33.6477 20.7789 31.4994 20.7789C29.3511 20.7789 27.6075 22.5248 27.6075 24.6673ZM17.8779 28.5558C15.7296 28.5558 13.986 26.8099 13.986 24.6673C13.986 22.5248 15.7296 20.7789 17.8779 20.7789C20.0262 20.7789 21.7698 22.5248 21.7698 24.6673C21.7698 26.8099 20.0262 28.5558 17.8779 28.5558ZM41.229 24.6673C41.229 26.8099 42.9726 28.5558 45.1209 28.5558C47.2692 28.5558 49.0128 26.8099 49.0128 24.6673C49.0128 22.5248 47.2692 20.7789 45.1209 20.7789C42.9726 20.7789 41.229 22.5248 41.229 24.6673Z" fill="#3369F3"/>
</svg>
